<svg width="57" height="54" viewBox="0 0 57 54" fill="none" xmlns="http://www.w3.org/2000/svg">
<ellipse cx="28.2273" cy="27" rx="28.2273" ry="27" fill="white"/>
<g clip-path="url(#clip0_332_10418)">
<path d="M46.8405 20.3834C46.6645 19.92 46.467 19.4673 46.249 19.0273C45.1495 16.9045 43.703 15.037 41.9865 13.5241C40.0892 11.8955 37.9591 10.6457 35.6885 9.82914C33.187 8.93169 30.5703 8.51318 27.9465 8.59093C26.1892 8.62882 24.4401 8.87252 22.7272 9.31813C21.1227 9.76959 19.5698 10.4291 18.0994 11.2835C16.7049 11.9962 15.4002 12.9149 14.2197 14.0155C13.0982 15.0549 12.1037 16.2577 11.2621 17.5925C10.4557 18.8835 9.83338 20.3094 9.41796 21.8182C9.00682 23.3269 8.80149 24.8976 8.80904 26.4762C8.86589 28.0319 9.12981 29.5691 9.59194 31.036C10.0874 32.4929 10.7736 33.8577 11.6275 35.0847C12.5315 36.364 13.5716 37.5126 14.7243 38.5045C15.9767 39.5476 17.331 40.4246 18.7605 41.1185C20.2831 41.8243 21.8619 42.3639 23.4753 42.7302C25.1929 43.1187 26.9435 43.2901 28.6946 43.2412C30.4531 43.2206 32.2038 42.9767 33.914 42.514C35.1481 42.2027 36.3538 41.7618 37.5153 41.1972C37.8668 41.0673 38.2098 40.9096 38.5418 40.7255C39.9287 39.9809 41.2313 39.0505 42.4215 37.9542C43.5582 36.9637 44.5555 35.7842 45.3791 34.4558C46.1147 33.4331 46.6912 32.2767 47.084 31.036C47.2128 30.8132 47.3069 30.5673 47.3624 30.3088C47.7703 28.8333 47.9699 27.2946 47.9539 25.749C47.9158 23.8926 47.5366 22.0655 46.8405 20.3834ZM34.1227 40.3913C32.4057 41.1905 30.569 41.6108 28.712 41.6295C26.8589 41.7017 25.0121 41.3473 23.284 40.5879C21.7473 39.8938 20.368 38.8192 19.2477 37.4432C18.142 36.0311 17.291 34.3888 16.7424 32.6083C16.1428 30.5647 15.8144 28.432 15.7681 26.2797C15.7152 24.1541 15.9558 22.0322 16.4814 19.9903C16.9611 18.1436 17.7463 16.4163 18.7953 14.8999C19.8696 13.4647 21.2125 12.3167 22.7272 11.5391C24.3707 10.7123 26.1475 10.2774 27.9465 10.2615C29.8136 10.1729 31.6759 10.5347 33.4094 11.3229C34.9631 12.022 36.3597 13.1029 37.4979 14.4872C38.5944 15.9655 39.4434 17.6572 40.0032 19.4793C40.5812 21.5203 40.8918 23.6458 40.9253 25.7883C40.9702 27.9083 40.7535 30.0251 40.2815 32.0776C39.8092 33.8799 39.0224 35.5572 37.9676 37.0108C36.9276 38.4502 35.6133 39.6058 34.1227 40.3913Z" fill="url(#paint0_linear_332_10418)"/>
<path d="M13.3325 26.2795C24.7976 26.2795 28.1902 22.3487 28.2076 9.45557C28.2076 22.4273 31.5479 26.2205 43.0305 26.2009C31.5479 26.2009 28.1728 30.1317 28.138 43.0248C28.1728 30.2103 24.7976 26.2795 13.3325 26.2795Z" fill="url(#paint1_linear_332_10418)"/>
</g>
<defs>
<linearGradient id="paint0_linear_332_10418" x1="28.3818" y1="8.58179" x2="28.3818" y2="43.2493" gradientUnits="userSpaceOnUse">
<stop stop-color="#7D1E6A"/>
<stop offset="1" stop-color="#E337C0"/>
</linearGradient>
<linearGradient id="paint1_linear_332_10418" x1="28.1815" y1="9.45557" x2="28.1815" y2="43.0248" gradientUnits="userSpaceOnUse">
<stop stop-color="#FFB3F4" stop-opacity="0.8"/>
<stop offset="1" stop-color="#930F74"/>
</linearGradient>
<clipPath id="clip0_332_10418">
<rect width="39.0927" height="34.6502" fill="white" transform="translate(8.80908 8.59082)"/>
</clipPath>
</defs>
</svg>
