<svg width="45" height="45" viewBox="0 0 45 45" fill="none" xmlns="http://www.w3.org/2000/svg">
<path d="M41.25 30.3563C41.25 37.1813 37.1813 41.25 30.3563 41.25H28.125C27.0938 41.25 26.25 40.4063 26.25 39.375V28.5563C26.25 28.05 26.6625 27.6188 27.1687 27.6188L30.4688 27.5625C30.7313 27.5438 30.9563 27.3563 31.0125 27.0938L31.6688 23.5125C31.725 23.175 31.4625 22.8563 31.1062 22.8563L27.1125 22.9125C26.5875 22.9125 26.175 22.5 26.1563 21.9938L26.0813 17.4C26.0813 17.1 26.325 16.8375 26.6437 16.8375L31.1437 16.7625C31.4625 16.7625 31.7063 16.5188 31.7063 16.2L31.6312 11.7C31.6312 11.3812 31.3875 11.1375 31.0688 11.1375L26.0062 11.2125C22.8937 11.2688 20.4188 13.8187 20.475 16.9312L20.5688 22.0875C20.5875 22.6125 20.175 23.025 19.65 23.0438L17.4 23.0812C17.0812 23.0812 16.8375 23.325 16.8375 23.6437L16.8938 27.2063C16.8938 27.525 17.1375 27.7687 17.4562 27.7687L19.7063 27.7313C20.2313 27.7313 20.6437 28.1438 20.6625 28.65L20.8312 39.3375C20.85 40.3875 20.0062 41.25 18.9562 41.25H14.6437C7.81875 41.25 3.75 37.1812 3.75 30.3375V14.6437C3.75 7.81875 7.81875 3.75 14.6437 3.75H30.3563C37.1813 3.75 41.25 7.81875 41.25 14.6437V30.3563Z" fill="white"/>
</svg>
